g Bullet_Effect
v -0.0003186606 0.1409748 0.06405524
v -0.06405525 0.1408973 0.0003186822
v -2.38419E-09 0.2257966 -2.142768E-08
v -0.06405523 -0.1409303 0.000318723
v -0.0003186272 -0.1409417 0.06405527
v 4.053116E-08 -0.2257966 2.858023E-08
v -0.0003186606 0.1409748 0.06405524
v -2.38419E-09 0.2257966 -2.142768E-08
v 0.06405527 0.1408974 -0.0003187159
v 0.0003187083 -0.1409417 -0.06405525
v 4.053116E-08 -0.2257966 2.858023E-08
v 0.06405531 -0.1409303 -0.000318675
v -0.06405523 -0.1409303 0.000318723
v 4.053116E-08 -0.2257966 2.858023E-08
v 0.0003187083 -0.1409417 -0.06405525
v 0.06405531 -0.1409303 -0.000318675
v 4.053116E-08 -0.2257966 2.858023E-08
v -0.0003186272 -0.1409417 0.06405527
v -2.38419E-09 0.2257966 -2.142768E-08
v -0.06405525 0.1408973 0.0003186822
v 0.0003186797 0.1409747 -0.06405528
v 0.06405527 0.1408974 -0.0003187159
v -2.38419E-09 0.2257966 -2.142768E-08
v 0.0003186797 0.1409747 -0.06405528
v -0.0003186272 -0.1409417 0.06405527
v -0.06405523 -0.1409303 0.000318723
v -0.06405525 0.1408973 0.0003186822
v -0.0003186606 0.1409748 0.06405524
v 0.06405531 -0.1409303 -0.000318675
v 0.06405527 0.1408974 -0.0003187159
v 0.0003186797 0.1409747 -0.06405528
v 0.0003187083 -0.1409417 -0.06405525
v -0.06405523 -0.1409303 0.000318723
v 0.0003187083 -0.1409417 -0.06405525
v 0.0003186797 0.1409747 -0.06405528
v -0.06405525 0.1408973 0.0003186822
v -0.0003186606 0.1409748 0.06405524
v 0.06405527 0.1408974 -0.0003187159
v 0.06405531 -0.1409303 -0.000318675
v -0.0003186272 -0.1409417 0.06405527
vt 0.5004702 0.474828
vt 0.5945045 0.474828
vt 0.5000001 0.474828
vt 0.5945047 0.8708247
vt 0.5004703 0.8708331
vt 0.5000002 0.9335349
vt 0.5004702 0.474828
vt 0.5000001 0.474828
vt 0.4054955 0.474828
vt 0.49953 0.8708332
vt 0.5000002 0.9335349
vt 0.4054956 0.8708247
vt 0.5945047 0.8708247
vt 0.5000002 0.9335349
vt 0.49953 0.8708332
vt 0.4054956 0.8708247
vt 0.5000002 0.9335349
vt 0.5004703 0.8708331
vt 0.5000001 0.474828
vt 0.5945045 0.474828
vt 0.4995299 0.474828
vt 0.4054955 0.474828
vt 0.5000001 0.474828
vt 0.4995299 0.474828
vt 0.5004703 0.8708331
vt 0.5945047 0.8708247
vt 0.5945045 0.474828
vt 0.5004702 0.474828
vt 0.4054956 0.8708247
vt 0.4054955 0.474828
vt 0.4995299 0.474828
vt 0.49953 0.8708332
vt 0.5945047 0.8708247
vt 0.49953 0.8708332
vt 0.4995299 0.474828
vt 0.5945045 0.474828
vt 0.5004702 0.474828
vt 0.4054955 0.474828
vt 0.4054956 0.8708247
vt 0.5004703 0.8708331
vn -0.6234093 0.472691 0.6228354
vn -0.6234093 0.472691 0.6228354
vn -0.6234094 0.472691 0.6228355
vn -0.6231645 -0.4726909 0.6230806
vn -0.6231645 -0.4726909 0.6230806
vn -0.6231644 -0.4726909 0.6230806
vn 0.6247807 0.4690447 0.6242164
vn 0.6247807 0.4690447 0.6242164
vn 0.6247807 0.4690447 0.6242165
vn 0.6231647 -0.4726911 -0.6230803
vn 0.6231647 -0.472691 -0.6230802
vn 0.6231647 -0.472691 -0.6230801
vn -0.6245403 -0.4690446 -0.624457
vn -0.6245403 -0.4690446 -0.6244569
vn -0.6245403 -0.4690446 -0.6244569
vn 0.6245403 -0.4690443 0.6244572
vn 0.6245403 -0.4690444 0.6244572
vn 0.6245403 -0.4690443 0.6244572
vn -0.6247808 0.4690445 -0.6242164
vn -0.6247808 0.4690445 -0.6242164
vn -0.6247808 0.4690444 -0.6242164
vn 0.6234092 0.4726911 -0.6228356
vn 0.6234092 0.4726911 -0.6228355
vn 0.6234092 0.4726911 -0.6228356
vn -0.7071066 0 0.7071069
vn -0.7071066 0 0.7071069
vn -0.7071065 0 0.707107
vn -0.7071066 0 0.7071069
vn 0.7071066 0 -0.7071069
vn 0.7071066 0 -0.7071068
vn 0.7071066 0 -0.7071069
vn 0.7071066 0 -0.7071069
vn -0.7071069 -1.393651E-07 -0.7071066
vn -0.7071069 -1.393651E-07 -0.7071066
vn -0.7071069 -1.393651E-07 -0.7071066
vn -0.7071069 -1.393651E-07 -0.7071066
vn 0.7071068 1.765292E-07 0.7071066
vn 0.7071069 1.765292E-07 0.7071066
vn 0.7071069 1.765292E-07 0.7071066
vn 0.7071068 1.765292E-07 0.7071066
g Bullet_Effect_0
f 3/3/3 2/2/2 1/1/1
f 6/6/6 5/5/5 4/4/4
f 9/9/9 8/8/8 7/7/7
f 12/12/12 11/11/11 10/10/10
f 15/15/15 14/14/14 13/13/13
f 18/18/18 17/17/17 16/16/16
f 21/21/21 20/20/20 19/19/19
f 24/24/24 23/23/23 22/22/22
f 27/27/27 26/26/26 25/25/25
f 28/28/28 27/27/27 25/25/25
f 31/31/31 30/30/30 29/29/29
f 32/32/32 31/31/31 29/29/29
f 35/35/35 34/34/34 33/33/33
f 36/36/36 35/35/35 33/33/33
f 39/39/39 38/38/38 37/37/37
f 40/40/40 39/39/39 37/37/37
